<svg xmlns="http://www.w3.org/2000/svg" viewBox="0 0 100 100">
  <rect width="100" height="100" rx="20" fill="#030303"/>
  <path d="M50 85 C50 85, 20 60, 20 35 C20 15, 45 15, 50 30 C55 15, 80 15, 80 35 C80 60, 50 85, 50 85 Z" fill="url(#grad)" />
  <path d="M50 85 C50 85, 20 60, 20 35 C20 15, 45 15, 50 30 C55 15, 80 15, 80 35 C80 60, 50 85, 50 85 Z" fill="none" stroke="#00E5C4" stroke-width="2" stroke-dasharray="4,4" />
  <circle cx="35" cy="40" r="3" fill="#00E5C4" />
  <circle cx="65" cy="40" r="3" fill="#00E5C4" />
  <path d="M40 55 Q50 65 60 55" fill="none" stroke="#00E5C4" stroke-width="2" stroke-linecap="round"/>
  <defs>
    <linearGradient id="grad" x1="0%" y1="0%" x2="100%" y2="100%">
      <stop offset="0%" stop-color="#FC3D21" />
      <stop offset="100%" stop-color="#6B4FA0" />
    </linearGradient>
  </defs>
</svg>
